<!--
The contents of this file are subject to the Common Public Attribution
License Version 1.0. (the "License"); you may not use this file except in
compliance with the License. You may obtain a copy of the License at
https://raw.githubusercontent.com/udia-software/udia/master/LICENSE.
The License is based on the Mozilla Public License Version 1.1, but
Sections 14 and 15 have been added to cover use of software over a computer
network and provide for limited attribution for the Original Developer.
In addition, Exhibit A has been modified to be consistent with Exhibit B.

Software distributed under the License is distributed on an "AS IS" basis,
WITHOUT WARRANTY OF ANY KIND, either express or implied. See the License for
the specific language governing rights and limitations under the License.

The Original Code is UDIA.

The Original Developer is the Initial Developer.  The Initial Developer of
the Original Code is Udia Software Incorporated.

All portions of the code written by UDIA are Copyright (c) 2016-2017
Udia Software Incorporated. All Rights Reserved.
-->
<svg xmlns="http://www.w3.org/2000/svg"
     xmlns:xlink="http://www.w3.org/1999/xlink"
     version="1.1" x="0px" y="0px" viewBox="0 0 90 90"
     enable-background="new 0 0 90 90" xml:space="preserve">
    <polygon points="38.182,57.753 20.18,47.91 20.18,42.455 38.182,32.652 38.182,39.074 25.625,45.113 38.182,51.379 "/>
    <polygon points="39.848,62.08 46.351,27.918 50.136,27.918 43.56,62.08 "/>
    <polygon points="51.8,57.78 51.8,51.4 64.372,45.181 51.8,39.028 51.8,32.696 69.82,42.5 69.82,47.91 "/>
    <path d="M44.999,86.031L9.465,65.517V24.484L44.999,3.969l35.536,20.516v41.029L44.999,86.031L44.999,86.031z M13.07,63.434  l31.929,18.434L76.93,63.434V26.566L44.999,8.131L13.07,26.565V63.434L13.07,63.434z"/>
</svg>
